<?xml version="1.0" encoding="utf-8"?>
<!-- Generator: Adobe Illustrator 23.0.2, SVG Export Plug-In . SVG Version: 6.00 Build 0)  -->
<svg version="1.1" id="Layer_1" xmlns="http://www.w3.org/2000/svg" xmlns:xlink="http://www.w3.org/1999/xlink" x="0px" y="0px"
	 viewBox="0 0 375 125.2" style="enable-background:new 0 0 375 125.2;" xml:space="preserve">
<style type="text/css">
	.st0{clip-path:url(#SVGID_2_);}
	.st1{clip-path:url(#SVGID_4_);fill:#FFB509;}
	.st2{fill:none;}
	.st3{fill:#FFB509;}
	.st4{fill:#FFFFFF;}
</style>
<g>
	<defs>
		<path id="SVGID_1_" d="M128.2-258h23.1c5.3,0,7.3,0.6,9.2,1.6c2,1,3.5,2.6,4.5,4.5c1,2,1.6,3.9,1.6,9.2v23.1
			c0,5.3-0.6,7.3-1.6,9.2c-1,2-2.6,3.5-4.5,4.5c-2,1-3.9,1.6-9.2,1.6h-23.1c-5.3,0-7.3-0.6-9.2-1.6c-2-1-3.5-2.6-4.5-4.5
			c-1-2-1.6-3.9-1.6-9.2v-23.1c0-5.3,0.6-7.3,1.6-9.2c1-2,2.6-3.5,4.5-4.5C120.9-257.4,122.8-258,128.2-258z"/>
	</defs>
	<clipPath id="SVGID_2_">
		<use xlink:href="#SVGID_1_"  style="overflow:visible;"/>
	</clipPath>
	<g class="st0">
		<defs>
			<rect id="SVGID_3_" x="-509.2" y="-485" width="1440" height="1024"/>
		</defs>
		<clipPath id="SVGID_4_">
			<use xlink:href="#SVGID_3_"  style="overflow:visible;"/>
		</clipPath>
	</g>
</g>
<path class="st3" d="M91.5,111.4H45.4c-11.9,0-21.5-9.6-21.5-21.5V43.8c0-11.9,9.6-21.5,21.5-21.5h46.1c11.9,0,21.5,9.6,21.5,21.5
	v46.1C113.1,101.8,103.4,111.4,91.5,111.4z"/>
<g>
	<path class="st4" d="M167.7,74.7c-2.6,1.3-5.2,2-8,2c-3.9,0-6.9-1.2-9.1-3.5c-2.2-2.3-3.3-5.4-3.3-9.3c0-4,1.1-7.2,3.4-9.6
		c2.3-2.4,5.3-3.7,9.3-3.7c2.5,0,4.8,0.4,6.8,1.3l-1.2,4.3c-1.8-0.7-3.6-1.1-5.6-1.1c-2.4,0-4.3,0.8-5.5,2.3
		c-1.2,1.5-1.9,3.7-1.9,6.5c0,2.6,0.6,4.6,1.9,6c1.2,1.4,3.1,2.2,5.4,2.2c1,0,2-0.1,3.1-0.4v-5.6h-4.1v-4.2h8.8V74.7z"/>
	<path class="st4" d="M186.1,75.1c-2.1,1.1-4.7,1.6-7.8,1.6c-2.4,0-4.2-0.5-5.5-1.6c-1.3-1-1.9-2.4-1.9-4.1c0-1.8,0.7-3.1,2-4.1
		c1.3-1,3.1-1.5,5.3-1.5c0.9,0,2,0.1,3.2,0.3v-0.9c0-2.2-1.2-3.2-3.7-3.2c-1.8,0-3.4,0.3-4.8,0.9l-0.9-3.9c1.7-0.7,3.8-1.1,6.2-1.1
		c2.6,0,4.6,0.7,5.9,2c1.3,1.3,2,3.2,2,5.7V75.1z M178.7,73.1c1.1,0,1.9-0.2,2.5-0.5v-3.9c-0.9-0.2-1.7-0.3-2.6-0.3
		c-2,0-3,0.8-3,2.3C175.7,72.3,176.7,73.1,178.7,73.1z"/>
	<path class="st4" d="M190.6,59c2.1-1.1,4.6-1.6,7.6-1.6c1.3,0,2.4,0.1,3.2,0.3l-0.7,4.1c-0.6-0.2-1.3-0.3-2.1-0.3
		c-1.1,0-2.1,0.2-3,0.6v14.1h-5V59z"/>
	<path class="st4" d="M218.3,75.1c-2.1,1.1-4.7,1.6-7.8,1.6c-2.4,0-4.2-0.5-5.5-1.6c-1.3-1-1.9-2.4-1.9-4.1c0-1.8,0.7-3.1,2-4.1
		c1.3-1,3.1-1.5,5.3-1.5c0.9,0,2,0.1,3.2,0.3v-0.9c0-2.2-1.2-3.2-3.7-3.2c-1.8,0-3.4,0.3-4.8,0.9l-0.9-3.9c1.7-0.7,3.8-1.1,6.2-1.1
		c2.6,0,4.6,0.7,5.9,2c1.3,1.3,2,3.2,2,5.7V75.1z M211,73.1c1.1,0,1.9-0.2,2.5-0.5v-3.9c-0.9-0.2-1.7-0.3-2.6-0.3c-2,0-3,0.8-3,2.3
		C208,72.3,209,73.1,211,73.1z"/>
	<path class="st4" d="M229.6,83.1c-2.4,0-4.5-0.4-6.3-1.1l1-3.9c1.5,0.6,3.1,0.9,5,0.9c1.4,0,2.5-0.3,3.3-0.9
		c0.8-0.6,1.2-1.4,1.2-2.5v-0.8c-1.1,0.4-2.3,0.6-3.4,0.6c-2.7,0-4.8-0.7-6.3-2.2c-1.5-1.5-2.3-3.6-2.3-6.3c0-2.9,0.9-5.2,2.7-6.9
		c1.8-1.7,4.1-2.6,7.1-2.6c2.6,0,5,0.5,7.2,1.4v16.2c0,2.5-0.8,4.5-2.4,5.9C234.7,82.4,232.5,83.1,229.6,83.1z M226.9,66.4
		c0,1.5,0.4,2.7,1.1,3.6c0.8,0.9,1.8,1.3,3.2,1.3c0.9,0,1.7-0.2,2.6-0.6v-8.7c-0.8-0.3-1.6-0.4-2.3-0.4c-1.5,0-2.6,0.4-3.4,1.3
		C227.3,63.7,226.9,64.9,226.9,66.4z"/>
	<path class="st4" d="M258.6,75.4c-1.8,0.8-3.9,1.2-6.3,1.2c-2.9,0-5.3-0.9-7.1-2.6c-1.8-1.7-2.7-4.1-2.7-7c0-2.9,0.8-5.2,2.5-6.9
		c1.7-1.8,3.8-2.7,6.4-2.7c2.4,0,4.2,0.8,5.7,2.3c1.4,1.5,2.1,3.5,2.1,5.9c0,0.9,0,1.8-0.1,2.7h-11.4c0.5,2.8,2.1,4.2,5,4.2
		c1.7,0,3.3-0.3,5-1L258.6,75.4z M251.4,61.4c-1,0-1.9,0.3-2.5,1c-0.7,0.7-1.1,1.7-1.2,2.9h6.8v-0.4c0-1-0.3-1.9-0.8-2.5
		S252.4,61.4,251.4,61.4z"/>
	<path class="st4" d="M278.4,66.7h-3.9v9.5h-1.7V51h5.5c6.7,0,10,2.6,10,7.8C288.4,64.1,285,66.7,278.4,66.7z M278.4,52.6h-3.9v12.6
		h3.9c2.6,0,4.7-0.5,6.1-1.4c1.4-0.9,2.1-2.6,2.1-4.9c0-2.3-0.7-3.9-2.1-4.9C283,53,281,52.6,278.4,52.6z"/>
	<path class="st4" d="M311.4,54.2c1.7,2.4,2.6,5.6,2.6,9.4c0,3.8-0.9,7-2.6,9.4c-1.7,2.4-4.3,3.6-7.7,3.6c-3.4,0-6-1.2-7.7-3.6
		c-1.7-2.4-2.6-5.6-2.6-9.4c0-3.8,0.9-7,2.6-9.4c1.7-2.4,4.3-3.6,7.7-3.6C307.1,50.6,309.6,51.8,311.4,54.2z M295.1,63.6
		c0,2.2,0.3,4.1,0.8,5.7c0.6,1.7,1.5,3,2.8,4.1c1.3,1.1,3,1.6,4.9,1.6c1.9,0,3.6-0.5,4.9-1.6c1.3-1.1,2.3-2.4,2.8-4.1
		c0.6-1.7,0.8-3.6,0.8-5.7c0-2.2-0.3-4.1-0.8-5.7c-0.6-1.7-1.5-3-2.8-4.1c-1.3-1.1-3-1.6-4.9-1.6c-2.9,0-5.1,1.1-6.4,3.2
		C295.8,57.5,295.1,60.3,295.1,63.6z"/>
	<path class="st4" d="M318.5,75.3l0.4-1.6c2.7,0.9,5,1.4,6.9,1.4c2.1,0,3.7-0.4,4.9-1.3c1.2-0.8,1.7-2.1,1.7-3.8
		c0-0.9-0.2-1.7-0.5-2.3c-0.3-0.7-0.8-1.2-1.5-1.7c-0.7-0.5-1.4-0.8-2.1-1.1c-0.7-0.3-1.7-0.6-2.8-1c-2.3-0.7-4-1.6-5.1-2.6
		c-1.1-1-1.6-2.5-1.6-4.4c0-2,0.7-3.6,2.1-4.7c1.4-1.1,3.3-1.6,5.8-1.6c2,0,3.9,0.3,5.8,1l-0.4,1.5c-2-0.6-3.8-0.9-5.3-0.9
		c-4.1,0-6.2,1.6-6.2,4.7c0,1.5,0.4,2.6,1.3,3.4c0.9,0.7,2.4,1.4,4.4,2.1c1.3,0.5,2.3,0.9,3.1,1.1c0.8,0.3,1.6,0.7,2.4,1.3
		c0.8,0.6,1.4,1.3,1.8,2.1c0.4,0.8,0.6,1.9,0.6,3.1c0,2.3-0.8,4-2.4,5.1c-1.6,1.1-3.6,1.6-6,1.6C323,76.7,320.6,76.2,318.5,75.3z"/>
</g>
</svg>
